<svg id="visual" viewBox="0 0 900 600" width="900" height="600" xmlns="http://www.w3.org/2000/svg" xmlns:xlink="http://www.w3.org/1999/xlink" version="1.1"><rect x="0" y="0" width="900" height="600" fill="#181818"></rect><defs><linearGradient id="grad1_0" x1="33.3%" y1="0%" x2="100%" y2="100%"><stop offset="20%" stop-color="#181818" stop-opacity="1"></stop><stop offset="80%" stop-color="#181818" stop-opacity="1"></stop></linearGradient></defs><defs><linearGradient id="grad2_0" x1="0%" y1="0%" x2="66.7%" y2="100%"><stop offset="20%" stop-color="#181818" stop-opacity="1"></stop><stop offset="80%" stop-color="#181818" stop-opacity="1"></stop></linearGradient></defs><g transform="translate(900, 0)"><path d="M0 324.5C-42.5 319.8 -85 315.1 -124.2 299.8C-163.4 284.5 -199.3 258.5 -227 227C-254.7 195.5 -274.3 158.5 -289.2 119.8C-304.1 81 -314.3 40.5 -324.5 0L0 0Z" fill="#ffffff"></path></g><g transform="translate(0, 600)"><path d="M0 -324.5C41.1 -317.6 82.2 -310.7 122.8 -296.6C163.5 -282.4 203.7 -261.1 229.5 -229.5C255.2 -197.8 266.5 -155.9 279.9 -116C293.4 -76 308.9 -38 324.5 0L0 0Z" fill="#ffffff"></path></g></svg>