<svg xmlns="http://www.w3.org/2000/svg" version="1.1" xmlns:xlink="http://www.w3.org/1999/xlink" xmlns:svgjs="http://svgjs.com/svgjs" width="1440" height="560" preserveAspectRatio="none" viewBox="0 0 1440 560"><g mask="url(&quot;#SvgjsMask1005&quot;)" fill="none"><rect width="1440" height="560" x="0" y="0" fill="#0e2a47"></rect><path d="M112.43 92.91L177.39 130.41L177.39 205.41L112.43 242.91L47.48 205.41L47.48 130.41zM112.43 317.91L177.39 355.41L177.39 430.41L112.43 467.91L47.48 430.41L47.48 355.41zM242.34 317.91L307.3 355.41L307.3 430.41L242.34 467.91L177.39 430.41L177.39 355.41zM242.34 542.91L307.3 580.41L307.3 655.41L242.34 692.91L177.39 655.41L177.39 580.41zM372.25 92.91L437.2 130.41L437.2 205.41L372.25 242.91L307.3 205.41L307.3 130.41zM372.25 317.91L437.2 355.41L437.2 430.41L372.25 467.91L307.3 430.41L307.3 355.41zM307.3 430.41L372.25 467.91L372.25 542.91L307.3 580.41L242.34 542.91L242.34 467.91zM372.25 542.91L437.2 580.41L437.2 655.41L372.25 692.91L307.3 655.41L307.3 580.41zM437.2 -19.59L502.16 17.91L502.16 92.91L437.2 130.41L372.25 92.91L372.25 17.91zM502.16 542.91L567.11 580.41L567.11 655.41L502.16 692.91L437.2 655.41L437.2 580.41zM567.11 -19.59L632.06 17.91L632.06 92.91L567.11 130.41L502.16 92.91L502.16 17.91zM567.11 205.41L632.06 242.91L632.06 317.91L567.11 355.41L502.16 317.91L502.16 242.91zM761.97 92.91L826.93 130.41L826.93 205.41L761.97 242.91L697.02 205.41L697.02 130.41zM697.02 205.41L761.97 242.91L761.97 317.91L697.02 355.41L632.06 317.91L632.06 242.91zM891.88 92.91L956.83 130.41L956.83 205.41L891.88 242.91L826.92 205.41L826.92 130.41zM826.92 205.41L891.88 242.91L891.88 317.91L826.92 355.41L761.97 317.91L761.97 242.91zM891.88 542.91L956.83 580.41L956.83 655.41L891.88 692.91L826.92 655.41L826.92 580.41zM1021.79 92.91L1086.74 130.41L1086.74 205.41L1021.79 242.91L956.83 205.41L956.83 130.41zM956.83 430.41L1021.79 467.91L1021.79 542.91L956.83 580.41L891.88 542.91L891.88 467.91zM1151.69 317.91L1216.65 355.41L1216.65 430.41L1151.69 467.91L1086.74 430.41L1086.74 355.41zM1086.74 430.41L1151.69 467.91L1151.69 542.91L1086.74 580.41L1021.79 542.91L1021.79 467.91zM1151.69 542.91L1216.65 580.41L1216.65 655.41L1151.69 692.91L1086.74 655.41L1086.74 580.41zM1216.65 205.41L1281.6 242.91L1281.6 317.91L1216.65 355.41L1151.69 317.91L1151.69 242.91zM1346.56 -19.59L1411.51 17.91L1411.51 92.91L1346.56 130.41L1281.6 92.91L1281.6 17.91zM1346.56 205.41L1411.51 242.91L1411.51 317.91L1346.56 355.41L1281.6 317.91L1281.6 242.91zM1411.51 317.91L1476.46 355.41L1476.46 430.41L1411.51 467.91L1346.56 430.41L1346.56 355.41zM1541.42 92.91L1606.37 130.41L1606.37 205.41L1541.42 242.91L1476.46 205.41L1476.46 130.41zM1476.46 205.41L1541.42 242.91L1541.42 317.91L1476.46 355.41L1411.51 317.91L1411.51 242.91zM1541.42 542.91L1606.37 580.41L1606.37 655.41L1541.42 692.91L1476.46 655.41L1476.46 580.41z" stroke="#03305d" stroke-width="2"></path><path d="M104.93 92.91 a7.5 7.5 0 1 0 15 0 a7.5 7.5 0 1 0 -15 0zM169.89 130.41 a7.5 7.5 0 1 0 15 0 a7.5 7.5 0 1 0 -15 0zM169.89 205.41 a7.5 7.5 0 1 0 15 0 a7.5 7.5 0 1 0 -15 0zM104.93 242.91 a7.5 7.5 0 1 0 15 0 a7.5 7.5 0 1 0 -15 0zM39.98 205.41 a7.5 7.5 0 1 0 15 0 a7.5 7.5 0 1 0 -15 0zM39.98 130.41 a7.5 7.5 0 1 0 15 0 a7.5 7.5 0 1 0 -15 0zM104.93 317.91 a7.5 7.5 0 1 0 15 0 a7.5 7.5 0 1 0 -15 0zM169.89 355.41 a7.5 7.5 0 1 0 15 0 a7.5 7.5 0 1 0 -15 0zM169.89 430.41 a7.5 7.5 0 1 0 15 0 a7.5 7.5 0 1 0 -15 0zM104.93 467.91 a7.5 7.5 0 1 0 15 0 a7.5 7.5 0 1 0 -15 0zM39.98 430.41 a7.5 7.5 0 1 0 15 0 a7.5 7.5 0 1 0 -15 0zM39.98 355.41 a7.5 7.5 0 1 0 15 0 a7.5 7.5 0 1 0 -15 0zM234.84 317.91 a7.5 7.5 0 1 0 15 0 a7.5 7.5 0 1 0 -15 0zM299.8 355.41 a7.5 7.5 0 1 0 15 0 a7.5 7.5 0 1 0 -15 0zM299.8 430.41 a7.5 7.5 0 1 0 15 0 a7.5 7.5 0 1 0 -15 0zM234.84 467.91 a7.5 7.5 0 1 0 15 0 a7.5 7.5 0 1 0 -15 0zM234.84 542.91 a7.5 7.5 0 1 0 15 0 a7.5 7.5 0 1 0 -15 0zM299.8 580.41 a7.5 7.5 0 1 0 15 0 a7.5 7.5 0 1 0 -15 0zM299.8 655.41 a7.5 7.5 0 1 0 15 0 a7.5 7.5 0 1 0 -15 0zM234.84 692.91 a7.5 7.5 0 1 0 15 0 a7.5 7.5 0 1 0 -15 0zM169.89 655.41 a7.5 7.5 0 1 0 15 0 a7.5 7.5 0 1 0 -15 0zM169.89 580.41 a7.5 7.5 0 1 0 15 0 a7.5 7.5 0 1 0 -15 0zM364.75 92.91 a7.5 7.5 0 1 0 15 0 a7.5 7.5 0 1 0 -15 0zM429.7 130.41 a7.5 7.5 0 1 0 15 0 a7.5 7.5 0 1 0 -15 0zM429.7 205.41 a7.5 7.5 0 1 0 15 0 a7.5 7.5 0 1 0 -15 0zM364.75 242.91 a7.5 7.5 0 1 0 15 0 a7.5 7.5 0 1 0 -15 0zM299.8 205.41 a7.5 7.5 0 1 0 15 0 a7.5 7.5 0 1 0 -15 0zM299.8 130.41 a7.5 7.5 0 1 0 15 0 a7.5 7.5 0 1 0 -15 0zM364.75 317.91 a7.5 7.5 0 1 0 15 0 a7.5 7.5 0 1 0 -15 0zM429.7 355.41 a7.5 7.5 0 1 0 15 0 a7.5 7.5 0 1 0 -15 0zM429.7 430.41 a7.5 7.5 0 1 0 15 0 a7.5 7.5 0 1 0 -15 0zM364.75 467.91 a7.5 7.5 0 1 0 15 0 a7.5 7.5 0 1 0 -15 0zM364.75 542.91 a7.5 7.5 0 1 0 15 0 a7.5 7.5 0 1 0 -15 0zM429.7 580.41 a7.5 7.5 0 1 0 15 0 a7.5 7.5 0 1 0 -15 0zM429.7 655.41 a7.5 7.5 0 1 0 15 0 a7.5 7.5 0 1 0 -15 0zM364.75 692.91 a7.5 7.5 0 1 0 15 0 a7.5 7.5 0 1 0 -15 0zM429.7 -19.59 a7.5 7.5 0 1 0 15 0 a7.5 7.5 0 1 0 -15 0zM494.66 17.91 a7.5 7.5 0 1 0 15 0 a7.5 7.5 0 1 0 -15 0zM494.66 92.91 a7.5 7.5 0 1 0 15 0 a7.5 7.5 0 1 0 -15 0zM364.75 17.91 a7.5 7.5 0 1 0 15 0 a7.5 7.5 0 1 0 -15 0zM494.66 542.91 a7.5 7.5 0 1 0 15 0 a7.5 7.5 0 1 0 -15 0zM559.61 580.41 a7.5 7.5 0 1 0 15 0 a7.5 7.5 0 1 0 -15 0zM559.61 655.41 a7.5 7.5 0 1 0 15 0 a7.5 7.5 0 1 0 -15 0zM494.66 692.91 a7.5 7.5 0 1 0 15 0 a7.5 7.5 0 1 0 -15 0zM559.61 -19.59 a7.5 7.5 0 1 0 15 0 a7.5 7.5 0 1 0 -15 0zM624.56 17.91 a7.5 7.5 0 1 0 15 0 a7.5 7.5 0 1 0 -15 0zM624.56 92.91 a7.5 7.5 0 1 0 15 0 a7.5 7.5 0 1 0 -15 0zM559.61 130.41 a7.5 7.5 0 1 0 15 0 a7.5 7.5 0 1 0 -15 0zM559.61 205.41 a7.5 7.5 0 1 0 15 0 a7.5 7.5 0 1 0 -15 0zM624.56 242.91 a7.5 7.5 0 1 0 15 0 a7.5 7.5 0 1 0 -15 0zM624.56 317.91 a7.5 7.5 0 1 0 15 0 a7.5 7.5 0 1 0 -15 0zM559.61 355.41 a7.5 7.5 0 1 0 15 0 a7.5 7.5 0 1 0 -15 0zM494.66 317.91 a7.5 7.5 0 1 0 15 0 a7.5 7.5 0 1 0 -15 0zM494.66 242.91 a7.5 7.5 0 1 0 15 0 a7.5 7.5 0 1 0 -15 0zM754.47 92.91 a7.5 7.5 0 1 0 15 0 a7.5 7.5 0 1 0 -15 0zM819.43 130.41 a7.5 7.5 0 1 0 15 0 a7.5 7.5 0 1 0 -15 0zM819.43 205.41 a7.5 7.5 0 1 0 15 0 a7.5 7.5 0 1 0 -15 0zM754.47 242.91 a7.5 7.5 0 1 0 15 0 a7.5 7.5 0 1 0 -15 0zM689.52 205.41 a7.5 7.5 0 1 0 15 0 a7.5 7.5 0 1 0 -15 0zM689.52 130.41 a7.5 7.5 0 1 0 15 0 a7.5 7.5 0 1 0 -15 0zM754.47 317.91 a7.5 7.5 0 1 0 15 0 a7.5 7.5 0 1 0 -15 0zM689.52 355.41 a7.5 7.5 0 1 0 15 0 a7.5 7.5 0 1 0 -15 0zM884.38 92.91 a7.5 7.5 0 1 0 15 0 a7.5 7.5 0 1 0 -15 0zM949.33 130.41 a7.5 7.5 0 1 0 15 0 a7.5 7.5 0 1 0 -15 0zM949.33 205.41 a7.5 7.5 0 1 0 15 0 a7.5 7.5 0 1 0 -15 0zM884.38 242.91 a7.5 7.5 0 1 0 15 0 a7.5 7.5 0 1 0 -15 0zM819.42 205.41 a7.5 7.5 0 1 0 15 0 a7.5 7.5 0 1 0 -15 0zM819.42 130.41 a7.5 7.5 0 1 0 15 0 a7.5 7.5 0 1 0 -15 0zM884.38 317.91 a7.5 7.5 0 1 0 15 0 a7.5 7.5 0 1 0 -15 0zM819.42 355.41 a7.5 7.5 0 1 0 15 0 a7.5 7.5 0 1 0 -15 0zM884.38 542.91 a7.5 7.5 0 1 0 15 0 a7.5 7.5 0 1 0 -15 0zM949.33 580.41 a7.5 7.5 0 1 0 15 0 a7.5 7.5 0 1 0 -15 0zM949.33 655.41 a7.5 7.5 0 1 0 15 0 a7.5 7.5 0 1 0 -15 0zM884.38 692.91 a7.5 7.5 0 1 0 15 0 a7.5 7.5 0 1 0 -15 0zM819.42 655.41 a7.5 7.5 0 1 0 15 0 a7.5 7.5 0 1 0 -15 0zM819.42 580.41 a7.5 7.5 0 1 0 15 0 a7.5 7.5 0 1 0 -15 0zM1014.29 92.91 a7.5 7.5 0 1 0 15 0 a7.5 7.5 0 1 0 -15 0zM1079.24 130.41 a7.5 7.5 0 1 0 15 0 a7.5 7.5 0 1 0 -15 0zM1079.24 205.41 a7.5 7.5 0 1 0 15 0 a7.5 7.5 0 1 0 -15 0zM1014.29 242.91 a7.5 7.5 0 1 0 15 0 a7.5 7.5 0 1 0 -15 0zM949.33 430.41 a7.5 7.5 0 1 0 15 0 a7.5 7.5 0 1 0 -15 0zM1014.29 467.91 a7.5 7.5 0 1 0 15 0 a7.5 7.5 0 1 0 -15 0zM1014.29 542.91 a7.5 7.5 0 1 0 15 0 a7.5 7.5 0 1 0 -15 0zM884.38 467.91 a7.5 7.5 0 1 0 15 0 a7.5 7.5 0 1 0 -15 0zM1144.19 317.91 a7.5 7.5 0 1 0 15 0 a7.5 7.5 0 1 0 -15 0zM1209.15 355.41 a7.5 7.5 0 1 0 15 0 a7.5 7.5 0 1 0 -15 0zM1209.15 430.41 a7.5 7.5 0 1 0 15 0 a7.5 7.5 0 1 0 -15 0zM1144.19 467.91 a7.5 7.5 0 1 0 15 0 a7.5 7.5 0 1 0 -15 0zM1079.24 430.41 a7.5 7.5 0 1 0 15 0 a7.5 7.5 0 1 0 -15 0zM1079.24 355.41 a7.5 7.5 0 1 0 15 0 a7.5 7.5 0 1 0 -15 0zM1144.19 542.91 a7.5 7.5 0 1 0 15 0 a7.5 7.5 0 1 0 -15 0zM1079.24 580.41 a7.5 7.5 0 1 0 15 0 a7.5 7.5 0 1 0 -15 0zM1209.15 580.41 a7.5 7.5 0 1 0 15 0 a7.5 7.5 0 1 0 -15 0zM1209.15 655.41 a7.5 7.5 0 1 0 15 0 a7.5 7.5 0 1 0 -15 0zM1144.19 692.91 a7.5 7.5 0 1 0 15 0 a7.5 7.5 0 1 0 -15 0zM1079.24 655.41 a7.5 7.5 0 1 0 15 0 a7.5 7.5 0 1 0 -15 0zM1209.15 205.41 a7.5 7.5 0 1 0 15 0 a7.5 7.5 0 1 0 -15 0zM1274.1 242.91 a7.5 7.5 0 1 0 15 0 a7.5 7.5 0 1 0 -15 0zM1274.1 317.91 a7.5 7.5 0 1 0 15 0 a7.5 7.5 0 1 0 -15 0zM1144.19 242.91 a7.5 7.5 0 1 0 15 0 a7.5 7.5 0 1 0 -15 0zM1339.06 -19.59 a7.5 7.5 0 1 0 15 0 a7.5 7.5 0 1 0 -15 0zM1404.01 17.91 a7.5 7.5 0 1 0 15 0 a7.5 7.5 0 1 0 -15 0zM1404.01 92.91 a7.5 7.5 0 1 0 15 0 a7.5 7.5 0 1 0 -15 0zM1339.06 130.41 a7.5 7.5 0 1 0 15 0 a7.5 7.5 0 1 0 -15 0zM1274.1 92.91 a7.5 7.5 0 1 0 15 0 a7.5 7.5 0 1 0 -15 0zM1274.1 17.91 a7.5 7.5 0 1 0 15 0 a7.5 7.5 0 1 0 -15 0zM1339.06 205.41 a7.5 7.5 0 1 0 15 0 a7.5 7.5 0 1 0 -15 0zM1404.01 242.91 a7.5 7.5 0 1 0 15 0 a7.5 7.5 0 1 0 -15 0zM1404.01 317.91 a7.5 7.5 0 1 0 15 0 a7.5 7.5 0 1 0 -15 0zM1339.06 355.41 a7.5 7.5 0 1 0 15 0 a7.5 7.5 0 1 0 -15 0zM1468.96 355.41 a7.5 7.5 0 1 0 15 0 a7.5 7.5 0 1 0 -15 0zM1468.96 430.41 a7.5 7.5 0 1 0 15 0 a7.5 7.5 0 1 0 -15 0zM1404.01 467.91 a7.5 7.5 0 1 0 15 0 a7.5 7.5 0 1 0 -15 0zM1339.06 430.41 a7.5 7.5 0 1 0 15 0 a7.5 7.5 0 1 0 -15 0zM1533.92 92.91 a7.5 7.5 0 1 0 15 0 a7.5 7.5 0 1 0 -15 0zM1598.87 130.41 a7.5 7.5 0 1 0 15 0 a7.5 7.5 0 1 0 -15 0zM1598.87 205.41 a7.5 7.5 0 1 0 15 0 a7.5 7.5 0 1 0 -15 0zM1533.92 242.91 a7.5 7.5 0 1 0 15 0 a7.5 7.5 0 1 0 -15 0zM1468.96 205.41 a7.5 7.5 0 1 0 15 0 a7.5 7.5 0 1 0 -15 0zM1468.96 130.41 a7.5 7.5 0 1 0 15 0 a7.5 7.5 0 1 0 -15 0zM1533.92 317.91 a7.5 7.5 0 1 0 15 0 a7.5 7.5 0 1 0 -15 0zM1533.92 542.91 a7.5 7.5 0 1 0 15 0 a7.5 7.5 0 1 0 -15 0zM1598.87 580.41 a7.5 7.5 0 1 0 15 0 a7.5 7.5 0 1 0 -15 0zM1598.87 655.41 a7.5 7.5 0 1 0 15 0 a7.5 7.5 0 1 0 -15 0zM1533.92 692.91 a7.5 7.5 0 1 0 15 0 a7.5 7.5 0 1 0 -15 0zM1468.96 655.41 a7.5 7.5 0 1 0 15 0 a7.5 7.5 0 1 0 -15 0zM1468.96 580.41 a7.5 7.5 0 1 0 15 0 a7.5 7.5 0 1 0 -15 0z" fill="#03305d"></path><path d="M66.19 44.32L109.5 69.32L109.5 119.32L66.19 144.32L22.89 119.32L22.89 69.32zM22.89 119.32L66.19 144.32L66.19 194.32L22.89 219.32L-20.41 194.32L-20.41 144.32zM66.19 194.32L109.5 219.32L109.5 269.32L66.19 294.32L22.89 269.32L22.89 219.32zM22.89 269.32L66.19 294.32L66.19 344.32L22.89 369.32L-20.41 344.32L-20.41 294.32zM22.89 419.32L66.19 444.32L66.19 494.32L22.89 519.32L-20.41 494.32L-20.41 444.32zM66.19 494.32L109.5 519.32L109.5 569.32L66.19 594.32L22.89 569.32L22.89 519.32zM109.5 -30.68L152.8 -5.68L152.8 44.32L109.5 69.32L66.19 44.32L66.19 -5.68zM109.5 119.32L152.8 144.32L152.8 194.32L109.5 219.32L66.19 194.32L66.19 144.32zM152.8 194.32L196.1 219.32L196.1 269.32L152.8 294.32L109.5 269.32L109.5 219.32zM196.1 119.32L239.4 144.32L239.4 194.32L196.1 219.32L152.8 194.32L152.8 144.32zM196.1 269.32L239.4 294.32L239.4 344.32L196.1 369.32L152.8 344.32L152.8 294.32zM326.01 44.32L369.31 69.32L369.31 119.32L326.01 144.32L282.7 119.32L282.7 69.32zM282.7 119.32L326.01 144.32L326.01 194.32L282.7 219.32L239.4 194.32L239.4 144.32zM326.01 344.32L369.31 369.32L369.31 419.32L326.01 444.32L282.7 419.32L282.7 369.32zM282.7 419.32L326.01 444.32L326.01 494.32L282.7 519.32L239.4 494.32L239.4 444.32zM369.31 -30.68L412.61 -5.68L412.61 44.32L369.31 69.32L326.01 44.32L326.01 -5.68zM412.61 194.32L455.92 219.32L455.92 269.32L412.61 294.32L369.31 269.32L369.31 219.32zM412.61 344.32L455.92 369.32L455.92 419.32L412.61 444.32L369.31 419.32L369.31 369.32zM369.31 419.32L412.61 444.32L412.61 494.32L369.31 519.32L326.01 494.32L326.01 444.32zM455.92 -30.68L499.22 -5.68L499.22 44.32L455.92 69.32L412.61 44.32L412.61 -5.68zM499.22 194.32L542.52 219.32L542.52 269.32L499.22 294.32L455.92 269.32L455.92 219.32zM455.92 269.32L499.22 294.32L499.22 344.32L455.92 369.32L412.61 344.32L412.61 294.32zM499.22 344.32L542.52 369.32L542.52 419.32L499.22 444.32L455.92 419.32L455.92 369.32zM455.92 419.32L499.22 444.32L499.22 494.32L455.92 519.32L412.61 494.32L412.61 444.32zM542.52 -30.68L585.82 -5.68L585.82 44.32L542.52 69.32L499.22 44.32L499.22 -5.68zM585.82 194.32L629.13 219.32L629.13 269.32L585.82 294.32L542.52 269.32L542.52 219.32zM542.52 269.32L585.82 294.32L585.82 344.32L542.52 369.32L499.22 344.32L499.22 294.32zM585.82 494.32L629.13 519.32L629.13 569.32L585.82 594.32L542.52 569.32L542.52 519.32zM672.43 44.32L715.73 69.32L715.73 119.32L672.43 144.32L629.13 119.32L629.13 69.32zM629.13 119.32L672.43 144.32L672.43 194.32L629.13 219.32L585.82 194.32L585.82 144.32zM629.13 269.32L672.43 294.32L672.43 344.32L629.13 369.32L585.82 344.32L585.82 294.32zM672.43 344.32L715.73 369.32L715.73 419.32L672.43 444.32L629.13 419.32L629.13 369.32zM672.43 494.32L715.73 519.32L715.73 569.32L672.43 594.32L629.13 569.32L629.13 519.32zM715.73 -30.68L759.03 -5.68L759.03 44.32L715.73 69.32L672.43 44.32L672.43 -5.68zM759.03 194.32L802.34 219.32L802.34 269.32L759.03 294.32L715.73 269.32L715.73 219.32zM715.73 269.32L759.03 294.32L759.03 344.32L715.73 369.32L672.43 344.32L672.43 294.32zM802.34 -30.68L845.64 -5.68L845.64 44.32L802.34 69.32L759.03 44.32L759.03 -5.68zM802.34 119.32L845.64 144.32L845.64 194.32L802.34 219.32L759.03 194.32L759.03 144.32zM845.64 344.32L888.94 369.32L888.94 419.32L845.64 444.32L802.34 419.32L802.34 369.32zM845.64 494.32L888.94 519.32L888.94 569.32L845.64 594.32L802.34 569.32L802.34 519.32zM932.24 44.32L975.55 69.32L975.55 119.32L932.24 144.32L888.94 119.32L888.94 69.32zM932.24 494.32L975.55 519.32L975.55 569.32L932.24 594.32L888.94 569.32L888.94 519.32zM1018.85 44.32L1062.15 69.32L1062.15 119.32L1018.85 144.32L975.55 119.32L975.55 69.32zM975.55 269.32L1018.85 294.32L1018.85 344.32L975.55 369.32L932.24 344.32L932.24 294.32zM1018.85 344.32L1062.15 369.32L1062.15 419.32L1018.85 444.32L975.55 419.32L975.55 369.32zM975.55 419.32L1018.85 444.32L1018.85 494.32L975.55 519.32L932.24 494.32L932.24 444.32zM1018.85 494.32L1062.15 519.32L1062.15 569.32L1018.85 594.32L975.55 569.32L975.55 519.32zM1105.45 44.32L1148.76 69.32L1148.76 119.32L1105.45 144.32L1062.15 119.32L1062.15 69.32zM1062.15 119.32L1105.45 144.32L1105.45 194.32L1062.15 219.32L1018.85 194.32L1018.85 144.32zM1105.45 194.32L1148.76 219.32L1148.76 269.32L1105.45 294.32L1062.15 269.32L1062.15 219.32zM1062.15 269.32L1105.45 294.32L1105.45 344.32L1062.15 369.32L1018.85 344.32L1018.85 294.32zM1105.45 344.32L1148.76 369.32L1148.76 419.32L1105.45 444.32L1062.15 419.32L1062.15 369.32zM1192.06 44.32L1235.36 69.32L1235.36 119.32L1192.06 144.32L1148.76 119.32L1148.76 69.32zM1148.76 119.32L1192.06 144.32L1192.06 194.32L1148.76 219.32L1105.45 194.32L1105.45 144.32zM1278.66 44.32L1321.97 69.32L1321.97 119.32L1278.66 144.32L1235.36 119.32L1235.36 69.32zM1278.66 194.32L1321.97 219.32L1321.97 269.32L1278.66 294.32L1235.36 269.32L1235.36 219.32zM1235.36 269.32L1278.66 294.32L1278.66 344.32L1235.36 369.32L1192.06 344.32L1192.06 294.32zM1235.36 419.32L1278.66 444.32L1278.66 494.32L1235.36 519.32L1192.06 494.32L1192.06 444.32zM1321.97 -30.68L1365.27 -5.68L1365.27 44.32L1321.97 69.32L1278.66 44.32L1278.66 -5.68zM1365.27 44.32L1408.57 69.32L1408.57 119.32L1365.27 144.32L1321.97 119.32L1321.97 69.32zM1365.27 194.32L1408.57 219.32L1408.57 269.32L1365.27 294.32L1321.97 269.32L1321.97 219.32zM1321.97 419.32L1365.27 444.32L1365.27 494.32L1321.97 519.32L1278.66 494.32L1278.66 444.32zM1451.87 44.32L1495.18 69.32L1495.18 119.32L1451.87 144.32L1408.57 119.32L1408.57 69.32zM1451.87 194.32L1495.18 219.32L1495.18 269.32L1451.87 294.32L1408.57 269.32L1408.57 219.32zM1408.57 269.32L1451.87 294.32L1451.87 344.32L1408.57 369.32L1365.27 344.32L1365.27 294.32zM1451.87 344.32L1495.18 369.32L1495.18 419.32L1451.87 444.32L1408.57 419.32L1408.57 369.32zM1408.57 419.32L1451.87 444.32L1451.87 494.32L1408.57 519.32L1365.27 494.32L1365.27 444.32z" stroke="rgba(6, 80, 156, 0.93)" stroke-width="2"></path></g><defs><mask id="SvgjsMask1005"><rect width="1440" height="560" fill="#ffffff"></rect></mask></defs></svg>