<svg xmlns="http://www.w3.org/2000/svg" version="1.1" xmlns:xlink="http://www.w3.org/1999/xlink" xmlns:svgjs="http://svgjs.com/svgjs" width="1440" height="560" preserveAspectRatio="none" viewBox="0 0 1440 560"><g mask="url(&quot;#SvgjsMask1001&quot;)" fill="none"><rect width="1440" height="560" x="0" y="0" fill="rgba(255, 254, 94, 1)"></rect><path d="M0,515.761C94.374,503.669,143.328,399.007,223.042,347.06C302.041,295.579,432.826,301.024,465.343,212.515C498.462,122.367,383.049,41.949,370.094,-53.212C356.979,-149.545,447.819,-259.823,390.362,-338.25C334.082,-415.07,208.058,-370.594,117.044,-398.617C24.302,-427.172,-52.684,-522.264,-147.99,-504.008C-243.364,-485.739,-310.835,-394.287,-355.554,-308.089C-395.441,-231.205,-386.262,-141.244,-381.044,-54.786C-376.713,16.982,-345.634,80.074,-327.922,149.757C-305.496,237.985,-323.817,341.545,-263.071,409.346C-198.645,481.254,-95.765,528.032,0,515.761" fill="#fffe18"></path><path d="M1440 996.6569999999999C1520.549 994.384 1586.641 936.223 1648.931 885.1030000000001 1705.473 838.6990000000001 1754.112 783.799 1781.841 716.113 1808.862 650.154 1805.683 578.978 1803.529 507.73199999999997 1801.112 427.812 1818.673 337.608 1768.513 275.342 1718.191 212.87599999999998 1628.569 191.13099999999997 1548.355 190.976 1477.059 190.83800000000002 1422.073 247.31099999999998 1356.183 274.545 1298.99 298.184 1234.51 301.235 1186.655 340.475 1133.504 384.058 1087.374 440.055 1072.502 507.162 1057.1399999999999 576.477 1078.382 647.233 1103.996 713.448 1130.883 782.952 1166.368 849.085 1223.35 897.114 1285.375 949.393 1358.914 998.9449999999999 1440 996.6569999999999" fill="#fffea4"></path></g><defs><mask id="SvgjsMask1001"><rect width="1440" height="560" fill="#ffffff"></rect></mask></defs></svg>