<svg id="visual" viewBox="0 0 900 600" width="900" height="600" xmlns="http://www.w3.org/2000/svg" xmlns:xlink="http://www.w3.org/1999/xlink" version="1.1"><rect x="0" y="0" width="900" height="600" fill="#181818"></rect><path d="M0 149L30 160C60 171 120 193 180 215.5C240 238 300 261 360 254C420 247 480 210 540 214C600 218 660 263 720 264.3C780 265.7 840 223.3 870 202.2L900 181L900 0L870 0C840 0 780 0 720 0C660 0 600 0 540 0C480 0 420 0 360 0C300 0 240 0 180 0C120 0 60 0 30 0L0 0Z" fill="#4d4c4c" stroke-linecap="round" stroke-linejoin="miter"></path></svg>